<?xml version="1.0" encoding="utf-8"?>
<!-- Generator: Adobe Illustrator 27.0.0, SVG Export Plug-In . SVG Version: 6.00 Build 0)  -->
<svg version="1.1" id="Layer_1" xmlns="http://www.w3.org/2000/svg" xmlns:xlink="http://www.w3.org/1999/xlink" x="0px" y="0px"
	 viewBox="0 0 333.27 237.97" style="enable-background:new 0 0 333.27 237.97;" xml:space="preserve">
<style type="text/css">
	.st0{fill:#FFFFFF;}
	.st1{fill:#BBD444;}
	.st2{fill:#EBF3BC;}
	.st3{fill:#F3F8CC;}
	.st4{fill:#FAFCDB;}
	.st5{fill:#C7D876;}
	.st6{fill:#CCDC80;}
	.st7{fill:#D1E18A;}
	.st8{fill:#C2D36D;}
	.st9{fill:#E1ECA7;}
	.st10{fill:#00FFFF;}
	.st11{fill:#19B869;}
	.st12{fill:#F7F7F7;}
	.st13{fill:#FFFFFF;stroke:#000000;stroke-miterlimit:10;}
	.st14{fill:#F7941D;}
	.st15{opacity:0.2;fill:#FCFCFC;}
	.st16{opacity:0.2;fill:#FFFFFF;}
	.st17{fill:none;stroke:#FFFFFF;stroke-miterlimit:10;}
	.st18{fill:none;stroke:#19B869;stroke-width:2;stroke-miterlimit:10;}
	.st19{fill:#9E29FF;}
	.st20{opacity:0.25;fill:#9E29FF;}
	.st21{fill:none;stroke:#7E21CC;stroke-width:0.9776;stroke-miterlimit:10;}
	.st22{fill:#004F8D;}
	.st23{fill:none;stroke:#00EBFF;stroke-width:1.5642;stroke-linecap:round;stroke-linejoin:round;stroke-miterlimit:10;}
	.st24{fill:#FFFFFF;stroke:#00EBFF;stroke-width:1.5642;stroke-linecap:round;stroke-linejoin:round;stroke-miterlimit:10;}
</style>
<g>
	<path class="st19" d="M306.86,0H79.35c-11.1,0-20.09,9-20.09,20.09v135.88c0,11.1,9,20.09,20.09,20.09h172.23l65,61.21
		c1.81,1.7,4.72,0.02,4.15-2.4l-13.87-58.82l0,0c11.1,0,20.09-9,20.09-20.09V20.09C326.95,9,317.96,0,306.86,0z"/>
	<g>
		<path class="st20" d="M321.82,75.94c-0.72-9.72-1.66-19.43-2.83-29.1c-1.05-8.67-2.27-17.53-8.94-23.82
			c-1.89-1.78-5.11-1.53-6.44,0.83c-4.64,8.22-3.2,17.27-2.16,26.22c1.12,9.68,2.01,19.39,2.68,29.12
			c1.41,20.52,1.83,41.13,1.35,61.7c-0.07,3.17,0.59,8.23-0.91,11.15c-1.51,2.94-4.88,3.34-7.59,5.11
			c-6.19,4.03-7.8,10.98-7.62,17.97c0.22,8.7,1.92,17.57,4.97,25.7c3.34,8.92,8.21,14.45,14.16,21.57c0.88,1.05,2.23-0.13,2.06-1.2
			c-1.44-9.11-1.46-18.95-2.49-28.18c-0.48-4.25-3.4-19.07-1.42-21.56c1.59-2,6.63-2.9,8.81-4.88c2.41-2.19,4.11-4.88,5.29-7.9
			c2.92-7.52,2.42-16.36,2.61-24.27C323.81,114.89,323.26,95.39,321.82,75.94z"/>
		<path class="st20" d="M243.22,162.73c-12.42-7.54-29.49-7.51-43.6-8.16c-14.94-0.68-29.94-0.68-44.88-0.2
			c-14.99,0.48-29.95,1.53-44.85,3.26c-14.04,1.63-34.4,4.2-41.64-11.53c-0.1-0.21-0.45-0.11-0.44,0.12
			c2.17,31.62,49.23,21.3,69.29,20.93c17.65-0.32,35.31,0.15,52.92,1.52c16.64,1.29,35.88,6.29,52.2,1.77
			C245.75,169.47,246.3,164.61,243.22,162.73z"/>
		<path class="st16" d="M263.6,7.57c-14.43-3.1-29.46-1.56-44.1-1.4c-14.31,0.15-28.62,0.1-42.93-0.16
			c-14.31-0.26-28.62-0.72-42.91-1.39c-14.07-0.66-28.25-2.1-42.26-0.02C80.18,6.27,72.48,9.97,69.5,21.45
			c-3.25,12.49-3.59,25.86-3.52,38.69c0.16,27.8,0.28,57.84,8.07,84.73c0.11,0.38,0.69,0.4,0.79,0c5.96-24.4,4.95-50.5,4.72-75.42
			c-0.11-12.25-0.05-24.59,1.89-36.72c1.03-6.44,1.02-12.01,8.08-13.73c6.51-1.58,13.34-1.72,20.01-1.63
			c25.64,0.34,51.25,2.24,76.92,2.48c13.21,0.12,26.42,0.07,39.63-0.15c12.55-0.21,25.36,0.08,37.5-3.54
			C267.61,14.96,268.06,8.53,263.6,7.57z"/>
		<path class="st16" d="M282.78,9.55c-1.2-0.7-2.73-0.7-3.93,0c-0.58,0.35-1.05,0.81-1.4,1.4c-0.35,0.61-0.53,1.26-0.53,1.96
			c0.04,0.38,0.09,0.75,0.15,1.12c0.18,0.65,0.51,1.21,0.98,1.69c0.02,0.03,0.05,0.05,0.08,0.08c0.02,0.03,0.05,0.05,0.07,0.08
			c0.19,0.2,0.4,0.36,0.64,0.5c0.48,0.28,0.99,0.42,1.54,0.42c0.83,0.1,1.66-0.11,2.38-0.53c1.18-0.69,1.93-1.99,1.93-3.36
			C284.7,11.54,283.96,10.25,282.78,9.55z"/>
		<path class="st16" d="M299.76,12.17c0-0.45-0.11-0.87-0.34-1.25c-0.2-0.62-0.54-1.15-1.03-1.6c-0.33-0.26-0.67-0.52-1-0.78
			c-0.4-0.17-0.79-0.33-1.19-0.5c-0.44-0.06-0.88-0.12-1.32-0.18c-0.44,0.06-0.88,0.12-1.32,0.18c-0.4,0.17-0.79,0.33-1.19,0.5
			c-0.58,0.31-1.04,0.74-1.39,1.28c-0.31,0.31-0.52,0.67-0.64,1.1c-0.31,0.59-0.45,1.23-0.43,1.91c0,0.09-0.01,0.17-0.01,0.26
			c-0.02,0.65,0.11,1.26,0.41,1.82c0.19,0.59,0.52,1.09,0.98,1.52c0.32,0.25,0.64,0.49,0.96,0.74c0.74,0.43,1.53,0.64,2.38,0.64
			c0.09,0,0.17-0.01,0.26-0.01l1.32-0.18c0.4-0.17,0.79-0.33,1.19-0.5c0.58-0.31,1.04-0.74,1.39-1.28c0.31-0.31,0.52-0.67,0.64-1.1
			c0.22-0.39,0.34-0.8,0.34-1.25C299.88,13.05,299.88,12.61,299.76,12.17z"/>
		<path class="st16" d="M308.95,11.97c-4,0-4,6.21,0,6.21C312.95,18.18,312.95,11.97,308.95,11.97z"/>
	</g>
	<path class="st21" d="M256.15,171.21c-1.24-1.16-2.87-1.81-4.57-1.81H79.35c-7.42,0-13.43-6.01-13.43-13.43V20.09
		c0-7.42,6.01-13.43,13.43-13.43h227.51c7.42,0,13.43,6.01,13.43,13.43v135.88c0,7.4-6.02,13.43-13.43,13.43
		c-2.85,0-5.49,1.83-6.4,4.76c-0.36,1.17-0.33,2.44-0.05,3.63l8.73,37.03c0.57,2.41-2.34,4.1-4.15,2.4L256.15,171.21z"/>
	<polygon class="st19" points="43.99,53.86 3.34,37.12 0,55.24 	"/>
	<polygon class="st19" points="46.72,73.34 9.36,96.13 23.46,109.57 	"/>
	<g>
		<path class="st24" d="M327.39,172.18l-33.73-14.78c-0.7-0.31-1.42,0.39-1.14,1.1l13.73,34.17c0.27,0.68,1.26,0.63,1.46-0.08
			l3.22-11.44l15.51,15.88c0.63,0.65,1.67,0.66,2.32,0.03l2.42-2.36c0.65-0.63,0.66-1.67,0.03-2.32l-15.5-15.87l11.55-2.87
			C327.98,173.45,328.06,172.47,327.39,172.18z"/>
		<g>
			<line class="st23" x1="278.27" y1="143.88" x2="265.07" y2="130.68"/>
			<line class="st23" x1="307.5" y1="143.88" x2="320.69" y2="130.68"/>
			<line class="st23" x1="265.07" y1="186.3" x2="278.27" y2="173.11"/>
			<line class="st23" x1="292.88" y1="137.83" x2="292.88" y2="119.16"/>
			<line class="st23" x1="253.55" y1="158.49" x2="272.22" y2="158.49"/>
		</g>
	</g>
</g>
<g>
	
		<rect x="110.5" y="116.69" transform="matrix(0.9884 -0.1521 0.1521 0.9884 -16.9317 19.8752)" class="st0" width="21.92" height="7.85"/>
	<path class="st0" d="M147.1,88.38c-0.94,1.22-2.02,2.48-3.23,3.76c-1.21,1.29-2.46,2.37-3.75,3.25c-1.29,0.88-2.55,1.37-3.77,1.46
		l1.31,8.52c1.89-0.2,3.68-0.74,5.37-1.63s3.29-2.02,4.8-3.38l5.58,36.26l9.46-1.46l-7.4-48.07L147.1,88.38z"/>
	<path class="st0" d="M205.72,90.78c-2.36-3.46-5.28-6.01-8.76-7.65c-3.48-1.64-7.27-2.15-11.36-1.52s-7.53,2.25-10.3,4.85
		c-2.78,2.61-4.77,5.92-5.98,9.92c-1.21,4.01-1.44,8.43-0.69,13.29c0.75,4.85,2.3,9.01,4.65,12.46c2.36,3.46,5.26,6.01,8.72,7.66
		c3.46,1.64,7.23,2.16,11.32,1.53s7.54-2.25,10.34-4.86c2.8-2.61,4.8-5.92,6.01-9.93c1.21-4,1.44-8.43,0.69-13.28
		C209.62,98.39,208.07,94.24,205.72,90.78z M200.63,113.43c-0.58,2.6-1.63,4.73-3.12,6.38c-1.49,1.66-3.32,2.66-5.49,2.99
		c-2.17,0.33-4.21-0.07-6.13-1.2c-1.93-1.13-3.54-2.85-4.86-5.16c-1.32-2.31-2.22-5.06-2.71-8.26c-0.49-3.21-0.46-6.12,0.1-8.73
		c0.56-2.62,1.57-4.75,3.04-6.41c1.47-1.66,3.29-2.65,5.45-2.98c2.21-0.34,4.28,0.05,6.21,1.19s3.56,2.86,4.9,5.19
		c1.34,2.32,2.26,5.09,2.76,8.29C201.26,107.93,201.21,110.83,200.63,113.43z"/>
	<path class="st0" d="M253.75,104.65c-0.42,1.75-1.05,3.34-1.89,4.76c-0.84,1.42-1.89,2.59-3.16,3.51
		c-1.26,0.92-2.74,1.51-4.42,1.77c-2.41,0.37-4.65,0.01-6.75-1.07c-2.09-1.08-3.85-2.78-5.29-5.09c-0.37-0.6-0.71-1.23-1.02-1.88
		l16.67-2.57l-0.74-4.81l-17.48,2.69c-0.12-0.54-0.24-1.07-0.32-1.64c-0.09-0.57-0.13-1.11-0.19-1.66l17.48-2.69l-0.74-4.81
		l-16.7,2.57c0.09-0.72,0.22-1.42,0.4-2.1c0.66-2.59,1.81-4.72,3.45-6.4c1.64-1.68,3.64-2.7,6-3.07c1.59-0.24,3.13-0.14,4.63,0.31
		c1.5,0.45,2.89,1.19,4.19,2.24c1.29,1.04,2.38,2.32,3.25,3.82l8.17-4.56c-1.42-2.5-3.25-4.61-5.48-6.33
		c-2.24-1.72-4.72-2.94-7.44-3.67c-2.72-0.73-5.6-0.86-8.64-0.39c-4.33,0.67-8.02,2.32-11.06,4.97c-3.04,2.65-5.23,5.99-6.55,10.01
		c-0.71,2.14-1.11,4.39-1.23,6.76l-5.98,0.92l0.74,4.81l5.38-0.83c0.06,0.55,0.13,1.1,0.21,1.65c0.09,0.56,0.19,1.1,0.29,1.64
		l-5.38,0.83l0.74,4.81l5.98-0.92c0.83,2.22,1.89,4.25,3.21,6.08c2.48,3.44,5.57,5.96,9.3,7.57c3.72,1.6,7.75,2.08,12.08,1.41
		c3.03-0.47,5.75-1.48,8.14-3.05c2.39-1.56,4.4-3.53,6-5.91c1.6-2.38,2.73-5,3.37-7.87L253.75,104.65z"/>
	<polygon class="st0" points="118.09,76.1 123.3,75.29 104.43,58.28 117.19,40.02 111.84,40.84 98.63,59.58 96.11,43.26 
		92.02,43.89 97.47,79.27 101.56,78.64 99.51,65.3 102.09,61.59 	"/>
	
		<rect x="124.39" y="38.8" transform="matrix(0.9884 -0.1522 0.1522 0.9884 -7.1558 19.8998)" class="st0" width="4.09" height="35.8"/>
	
		<rect x="136.54" y="47.22" transform="matrix(0.9884 -0.1522 0.1522 0.9884 -7.5168 21.7862)" class="st0" width="4.09" height="25.57"/>
	<path class="st0" d="M135.79,41.5c0.71-0.11,1.27-0.45,1.68-1.03c0.41-0.58,0.56-1.21,0.46-1.88c-0.11-0.71-0.44-1.27-1.01-1.68
		c-0.56-0.41-1.2-0.57-1.91-0.46c-0.67,0.1-1.23,0.44-1.66,1c-0.43,0.57-0.59,1.21-0.48,1.91c0.1,0.68,0.45,1.23,1.03,1.65
		C134.49,41.44,135.12,41.6,135.79,41.5z"/>
	<path class="st0" d="M167.31,60.39c-0.44,1.62-1.24,2.95-2.41,3.99c-1.17,1.04-2.58,1.69-4.23,1.94c-1.65,0.25-3.19,0.08-4.61-0.53
		c-1.42-0.61-2.61-1.58-3.55-2.89c-0.94-1.32-1.56-2.91-1.85-4.76c-0.29-1.85-0.18-3.55,0.33-5.1c0.5-1.54,1.33-2.82,2.46-3.82
		c1.14-1,2.53-1.63,4.19-1.89c1.65-0.25,3.17-0.1,4.57,0.46c1.4,0.56,2.54,1.46,3.42,2.71l3.43-2.24c-1.32-1.87-3.03-3.21-5.12-4.02
		c-2.09-0.82-4.35-1.04-6.78-0.66c-2.46,0.38-4.56,1.28-6.31,2.71c-1.75,1.42-3,3.21-3.75,5.36c-0.76,2.15-0.93,4.52-0.54,7.12
		c0.4,2.59,1.29,4.8,2.68,6.62c1.38,1.82,3.12,3.15,5.22,3.98s4.39,1.06,6.88,0.67c2.46-0.38,4.56-1.32,6.29-2.83
		c1.73-1.51,2.94-3.42,3.62-5.73L167.31,60.39z"/>
	<polygon class="st0" points="181.37,66.35 180.1,58.12 183.28,53.54 193.25,64.53 198.25,63.76 185.51,50.2 193.35,38.64 
		188.25,39.43 179.24,52.5 175.93,30.97 171.88,31.6 177.33,66.98 	"/>
	<path class="st0" d="M220.49,57.8c0.91-1.14,1.58-2.42,2.02-3.83l-3.76-1.23c-0.46,1.49-1.24,2.75-2.34,3.78
		c-1.1,1.03-2.54,1.68-4.33,1.96c-2.43,0.37-4.55-0.09-6.37-1.4c-1.82-1.3-3.03-3.33-3.62-6.06l19.86-3.06
		c-0.44-2.83-1.29-5.22-2.55-7.16c-1.27-1.94-2.85-3.37-4.74-4.26c-1.9-0.9-4.03-1.17-6.38-0.8c-2.43,0.37-4.49,1.27-6.18,2.69
		c-1.7,1.42-2.92,3.2-3.68,5.35c-0.76,2.15-0.93,4.52-0.54,7.12c0.4,2.59,1.28,4.8,2.65,6.63s3.08,3.16,5.14,4
		c2.06,0.84,4.32,1.07,6.78,0.69c1.75-0.27,3.3-0.79,4.65-1.54C218.45,59.89,219.58,58.94,220.49,57.8z M202.65,43.6
		c0.61-1.18,1.46-2.14,2.56-2.88c1.09-0.74,2.28-1.2,3.56-1.4c1.31-0.2,2.54-0.1,3.67,0.31c1.13,0.41,2.11,1.09,2.93,2.03
		c0.82,0.94,1.39,2.13,1.71,3.56l-15.21,2.34C201.78,46.1,202.04,44.78,202.65,43.6z"/>
	<path class="st0" d="M232.93,58.42l-2.01-13.09c-0.44-2.86-0.17-5.17,0.82-6.93c0.99-1.76,2.59-2.8,4.82-3.15
		c1.28-0.2,2.46-0.13,3.55,0.2s2.02,1.11,2.79,2.34c0.77,1.23,1.35,3.08,1.74,5.58l1.99,12.94l4.04-0.62l-2.18-14.15
		c-0.4-2.8-1.14-5-2.23-6.59c-1.09-1.59-2.43-2.67-4.02-3.24c-1.59-0.57-3.38-0.7-5.36-0.39c-1.79,0.27-3.3,0.89-4.53,1.86
		c-1.23,0.96-2.16,2.22-2.78,3.76l-0.79-3.76l-3.79,0.58l3.89,25.27L232.93,58.42z"/>
</g>
</svg>
