<?xml version="1.0" encoding="utf-8"?>
<!-- Generator: Adobe Illustrator 27.1.1, SVG Export Plug-In . SVG Version: 6.00 Build 0)  -->
<svg version="1.1" id="Layer_1" xmlns="http://www.w3.org/2000/svg" xmlns:xlink="http://www.w3.org/1999/xlink" x="0px" y="0px"
	 viewBox="0 0 44 50" style="enable-background:new 0 0 44 50;" xml:space="preserve">
<style type="text/css">
	.st0{fill:none;stroke:#F15A24;stroke-miterlimit:10;}
</style>
<path class="st0" d="M30.91,29.6c0.15,0.15,0.15,0.4,0,0.55l-1.3,1.3l0.75,2.64c0.07,0.25,0,0.53-0.19,0.71l-1.07,1.07
	c-0.18,0.18-0.48,0.13-0.59-0.1l-3.48-7.29l-1.85-1.85c-0.77,0.77-1.28,1.28-1.28,1.28c-0.87,0.87-1.73,1.57-2.5,2.11l1.21,2.67
	c0.11,0.25,0.06,0.53-0.13,0.73l-0.79,0.79c-0.12,0.12-0.31,0.1-0.4-0.04l-1.95-2.99c-0.6,0.23-1.01,0.27-1.14,0.13
	c-0.14-0.14-0.1-0.55,0.13-1.14l-2.99-1.95c-0.14-0.09-0.16-0.29-0.04-0.4l0.79-0.79c0.19-0.19,0.48-0.24,0.73-0.13l2.67,1.21
	c0.54-0.77,1.24-1.62,2.11-2.5c0,0,0.51-0.51,1.28-1.28l-1.85-1.85L11.74,19c-0.23-0.11-0.28-0.41-0.1-0.59l1.07-1.07
	c0.19-0.19,0.46-0.26,0.71-0.19l2.64,0.75l1.3-1.3c0.15-0.15,0.4-0.15,0.55,0l0.87,0.87c0.15,0.15,0.15,0.4,0,0.55l-0.5,0.5
	l2.16,0.61l1.11-1.11c0.15-0.15,0.4-0.15,0.55,0l0.87,0.87c0.15,0.15,0.15,0.4,0,0.55l-0.31,0.31l2.16,0.61l2.45-2.45
	c2.2-2.2,4.29-3.47,5.03-2.72c0.75,0.75-0.52,2.83-2.72,5.03l-2.45,2.45l0.61,2.16l0.31-0.31c0.15-0.15,0.4-0.15,0.55,0l0.87,0.87
	c0.15,0.15,0.15,0.4,0,0.55l-1.11,1.11l0.61,2.16l0.5-0.5c0.15-0.15,0.4-0.15,0.55,0L30.91,29.6z"/>
</svg>
