<svg width="25" height="31" viewBox="0 0 25 31" fill="none" xmlns="http://www.w3.org/2000/svg">
<path d="M14.03 3.23999C16 0.63999 18.74 0.630005 18.74 0.630005C18.74 0.630005 19.15 3.06999 17.19 5.42999C15.1 7.93999 12.72 7.53003 12.72 7.53003C12.72 7.53003 12.27 5.54999 14.03 3.23999Z" fill="black"/>
<path d="M12.97 9.22998C13.98 9.22998 15.8701 7.84003 18.3201 7.84003C22.5401 7.84003 24.2001 10.84 24.2001 10.84C24.2001 10.84 20.9601 12.5 20.9601 16.52C20.9601 21.06 25.0001 22.63 25.0001 22.63C25.0001 22.63 22.17 30.58 18.36 30.58C16.61 30.58 15.2401 29.4 13.4001 29.4C11.5201 29.4 9.65005 30.63 8.43005 30.63C4.95005 30.63 0.540039 23.09 0.540039 17.02C0.540039 11.05 4.27007 7.91998 7.76007 7.91998C10.0301 7.91998 11.79 9.22998 12.97 9.22998Z" fill="black"/>
</svg>
