<?xml version="1.0" encoding="UTF-8"?>
<svg width="980px" height="680px" viewBox="0 0 980 680" version="1.1" xmlns="http://www.w3.org/2000/svg" xmlns:xlink="http://www.w3.org/1999/xlink">
    <title>DE Vorkasse Icon alt</title>
    <defs>
        <linearGradient x1="50%" y1="0%" x2="50%" y2="100%" id="linearGradient-1">
            <stop stop-color="#FFFFFF" offset="0%"></stop>
            <stop stop-color="#EDEDED" offset="100%"></stop>
        </linearGradient>
        <rect id="path-2" x="0" y="0" width="900" height="600" rx="80"></rect>
        <filter x="-6.7%" y="-10.0%" width="113.3%" height="120.0%" filterUnits="objectBoundingBox" id="filter-3">
            <feMorphology radius="2.5" operator="dilate" in="SourceAlpha" result="shadowSpreadOuter1"></feMorphology>
            <feOffset dx="0" dy="0" in="shadowSpreadOuter1" result="shadowOffsetOuter1"></feOffset>
            <feGaussianBlur stdDeviation="17.5" in="shadowOffsetOuter1" result="shadowBlurOuter1"></feGaussianBlur>
            <feColorMatrix values="0 0 0 0 0   0 0 0 0 0   0 0 0 0 0  0 0 0 0.5 0" type="matrix" in="shadowBlurOuter1"></feColorMatrix>
        </filter>
    </defs>
    <g id="DE-Vorkasse-Icon-alt" stroke="none" stroke-width="1" fill="none" fill-rule="evenodd">
        <g transform="translate(40, 40)">
            <g id="Rectangle">
                <use fill="black" fill-opacity="1" filter="url(#filter-3)" xlink:href="#path-2"></use>
                <use fill="url(#linearGradient-1)" fill-rule="evenodd" xlink:href="#path-2"></use>
            </g>
            <g id="Logo" transform="translate(50.3669, 78.5)" fill-rule="nonzero">
                <g id="fd3c0bb7-8527-4385-86a2-7781b0b2e612">
                    <path d="M4.18027835,123.076084 C9.75398281,96.7726885 33.3897272,74.060007 75.0875118,54.9380397 L525.702979,54.9380397 L586.860469,118.779356 L586.860469,389.563074 L525.702979,433.272626 L61.0196572,433.272626 L4.18027835,389.563074 C-1.39342612,238.208477 -1.39342612,149.379481 4.18027835,123.076084 Z" id="Path-2" fill="#FFFFFF"></path>
                    <path d="M391.022448,102.191347 C397.577222,101.029198 404.175801,101.809813 410.091233,104.234336 C416.237537,106.753485 421.645771,111.046762 425.50622,116.777052 C429.374886,122.51954 431.307815,129.137574 431.307815,135.755061 C431.307815,142.372548 429.374886,148.990583 425.50622,154.733071 C421.645771,160.46336 416.237537,164.756637 410.091233,167.275787 C404.175801,169.70031 397.577222,170.480925 391.022448,169.318776 L90.998427,169.318776 C84.4436526,170.480925 77.8450735,169.70031 71.929642,167.275787 C65.7833372,164.756637 60.3751039,160.46336 56.5146556,154.733071 C52.6459899,148.990583 50.7130609,142.372548 50.7130609,135.755061 C50.7130609,129.137574 52.6459899,122.51954 56.5146556,116.777052 C60.3751039,111.046762 65.7833372,106.753485 71.929642,104.234336 C77.8450735,101.809813 84.4436526,101.029198 90.998427,102.191347 L391.022448,102.191347 Z" id="Path" stroke="#EC008C" fill="#FFF875"></path>
                    <path d="M321.490147,214.877391 C330.949341,214.877391 339.510883,218.689261 345.709038,224.845592 C351.924779,231.019393 355.765086,239.549586 355.765086,248.969321 C355.765086,258.389056 351.924779,266.919248 345.709038,273.093049 C339.510883,279.24938 330.949341,283.06125 321.490147,283.06125 L89.9780307,283.06125 C80.5188368,283.06125 71.9572949,279.24938 65.7591404,273.093049 C59.5433986,266.919248 55.7030925,258.389056 55.7030925,248.969321 C55.7030925,239.549584 59.5433986,231.019393 65.7591404,224.845592 C71.9572949,218.689261 80.5188368,214.877391 89.9780307,214.877391 L321.490147,214.877391 Z" id="Path" stroke="#EC008C" fill="#FFF875"></path>
                    <path d="M573.388095,264.991868 L573.388095,373.27611 C572.999856,404.701571 547.240029,429.973642 515.598699,429.971278 L75.0875118,429.971278 C43.17131,429.971278 17.2981166,404.272666 17.2981166,372.571824 L17.2981166,125.366817 C17.2981166,93.665974 43.17131,67.9673634 75.0875118,67.9673634 L515.598699,67.9673634 C547.5149,67.9673634 573.388095,93.665974 573.388095,125.366817 L573.388095,165.863363 L586.860469,152.481896 L586.860469,125.366817 C586.860469,86.4700772 555.114218,54.9380397 515.953236,54.9380397 L75.0875118,54.9380397 C35.9265281,54.9380397 4.18027835,86.4700772 4.18027835,125.366817 L4.18027835,373.27611 C4.18027835,412.172851 35.9265281,443.704889 75.0875118,443.704889 L515.598699,443.704889 C554.759681,443.704889 586.505932,412.172851 586.505932,373.27611 L586.505932,260.942213 L573.388095,264.991868 Z" id="Path" fill="#4D4D4D"></path>
                    <path d="M391.417508,328.619866 C397.737828,328.166909 403.926011,329.467806 409.374888,332.214844 C414.920465,335.010633 419.699994,339.303893 423.078148,344.769816 C426.46286,350.246354 428.154141,356.435252 428.154141,362.62376 C428.154141,368.812267 426.46286,375.001166 423.078148,380.477702 C419.699994,385.943627 414.920465,390.236885 409.374888,393.032675 C403.926011,395.779712 397.737828,397.08061 391.417508,396.627652 L90.6033665,396.627652 C84.2830466,397.08061 78.0948631,395.779712 72.6459871,393.032675 C67.1004107,390.236885 62.3208804,385.943627 58.9427277,380.477702 C55.5580155,375.001166 53.8667345,368.812267 53.8667345,362.62376 C53.8667345,356.435252 55.5580155,350.246354 58.9427277,344.769816 C62.3208804,339.303893 67.1004107,335.010633 72.6459871,332.214844 C78.0948631,329.467806 84.2830466,328.166909 90.6033665,328.619866 L391.417508,328.619866 Z" id="Path" stroke="#EC008C" fill="#FFF875"></path>
                    <polygon id="Path" fill="#4D4D4D" points="547.152417 204.951335 525.702979 271.858673 593.064851 250.553968"></polygon>
                    <path d="M597.673822,240.517867 L556.902162,199.845248 L743.91999,10.0396945 C747.752482,6.168325 752.989729,3.98788676 758.455973,3.98788676 C763.922217,3.98788676 769.159465,6.168325 772.991956,10.0396945 L788.946084,25.8861692 C796.97071,33.861389 796.97071,46.7867481 788.946084,54.7619678 L597.673822,240.517867 Z" id="Path" fill="#4D4D4D"></path>
                    <path d="M597.673822,246.152169 L550.875047,199.845248 L740.906433,7.39861526 C745.574336,2.66660298 751.963418,0 758.633241,0 C765.303063,0 771.692146,2.66660298 776.36005,7.39861526 L792.314178,23.421162 C797.217539,27.9818313 800,34.3560785 800,41.0283562 C800,47.7006339 797.217539,54.0748812 792.314178,58.6355505 L597.673822,246.152169 Z M562.220205,199.845248 L597.673822,235.059637 L786.109794,51.7687447 C792.486522,45.3846819 792.486522,35.0873832 786.109794,28.7033203 L769.978398,12.8568454 C763.550965,6.52314573 753.183712,6.52314573 746.756279,12.8568454 L562.220205,199.845248 Z" id="Shape" fill="#4D4D4D"></path>
                    <path d="M582.428766,209.353133 C575.787351,202.528644 575.787351,191.703623 582.428766,184.879134 L741.970041,26.414385 C749.039576,21.4350084 758.697453,22.2627781 764.803686,28.3714401 C770.909917,34.4801021 771.674057,44.0784988 766.610304,51.064457 L607.06903,209.529206 C600.150494,216.076946 589.251739,215.999067 582.428766,209.353133 L582.428766,209.353133 Z" id="Path" fill="#3D502B"></path>
                    <g id="€" transform="translate(388.5361, 188.127)">
                        <g id="path-1-link" fill="#000000">
                            <path d="M55.8574105,18.7959795 C49.6931076,18.7959795 44.6152106,20.5770329 40.6235722,24.1391927 C36.6319323,27.7013511 34.0550891,32.8676682 32.8929666,39.6382971 L63.4364357,39.6382971 L63.4364357,52.9773806 L31.7561126,52.9773806 L31.6045322,55.6300392 L31.6045322,59.1921804 L31.7561126,61.6932584 L58.6616495,61.6932584 L58.6616495,75.1839223 L33.0445471,75.1839223 C35.621429,87.4620042 43.7309034,93.6009514 57.3732164,93.6009514 C64.5985882,93.6009514 71.5459587,92.1609522 78.2155326,89.280908 L78.2155326,108.68321 C72.354392,111.664308 64.9522845,113.154835 56.0089909,113.154835 C43.629857,113.154835 33.4488017,109.794835 25.4655234,103.074733 C17.4822437,96.3546307 12.4548749,87.0577868 10.3832641,75.1839223 L0,75.1839223 L0,61.6932584 L8.94324913,61.6932584 C8.74114044,60.5311359 8.64008824,58.9648204 8.64008824,56.9942632 L8.79166869,52.9773806 L0,52.9773806 L0,39.6382971 L10.0801032,39.6382971 C11.9496054,27.4107436 16.9769741,17.7475842 25.1623625,10.6485288 C33.3477495,3.54947336 43.57933,0 55.8574105,0 C65.3565033,0 74.2491354,2.07157939 82.5355775,6.21479968 L75.1081328,23.7981356 C71.621764,22.2317972 68.3628166,21.0065331 65.331192,20.1223087 C62.2995673,19.2380859 59.1416721,18.7959795 55.8574105,18.7959795 Z" id="path-1"></path>
                        </g>
                        <g id="path-1-link" fill="#4D4D4D">
                            <path d="M55.8574105,18.7959795 C49.6931076,18.7959795 44.6152106,20.5770329 40.6235722,24.1391927 C36.6319323,27.7013511 34.0550891,32.8676682 32.8929666,39.6382971 L63.4364357,39.6382971 L63.4364357,52.9773806 L31.7561126,52.9773806 L31.6045322,55.6300392 L31.6045322,59.1921804 L31.7561126,61.6932584 L58.6616495,61.6932584 L58.6616495,75.1839223 L33.0445471,75.1839223 C35.621429,87.4620042 43.7309034,93.6009514 57.3732164,93.6009514 C64.5985882,93.6009514 71.5459587,92.1609522 78.2155326,89.280908 L78.2155326,108.68321 C72.354392,111.664308 64.9522845,113.154835 56.0089909,113.154835 C43.629857,113.154835 33.4488017,109.794835 25.4655234,103.074733 C17.4822437,96.3546307 12.4548749,87.0577868 10.3832641,75.1839223 L0,75.1839223 L0,61.6932584 L8.94324913,61.6932584 C8.74114044,60.5311359 8.64008824,58.9648204 8.64008824,56.9942632 L8.79166869,52.9773806 L0,52.9773806 L0,39.6382971 L10.0801032,39.6382971 C11.9496054,27.4107436 16.9769741,17.7475842 25.1623625,10.6485288 C33.3477495,3.54947336 43.57933,0 55.8574105,0 C65.3565033,0 74.2491354,2.07157939 82.5355775,6.21479968 L75.1081328,23.7981356 C71.621764,22.2317972 68.3628166,21.0065331 65.331192,20.1223087 C62.2995673,19.2380859 59.1416721,18.7959795 55.8574105,18.7959795 Z" id="path-1"></path>
                        </g>
                    </g>
                </g>
            </g>
        </g>
    </g>
</svg>