<svg width="67" height="68" viewBox="0 0 67 68" fill="none" xmlns="http://www.w3.org/2000/svg">
<path d="M1.77002 2.32001H7.15002C9.53002 2.32001 11.58 3.99001 12.05 6.32001L13.19 11.94L19.05 42.88C19.55 45.35 21.72 47.12 24.24 47.12H64.88" stroke="#51BE8C" stroke-width="3" stroke-miterlimit="10" stroke-linecap="round" stroke-linejoin="round"/>
<path d="M13.4697 13.29L18.3198 39.1L61.6797 34.28L64.8898 9.91" stroke="#51BE8C" stroke-width="3" stroke-miterlimit="10" stroke-linecap="round" stroke-linejoin="round"/>
<path d="M29.5601 66.4C33.1058 66.4 35.9801 63.5257 35.9801 59.98C35.9801 56.4343 33.1058 53.56 29.5601 53.56C26.0145 53.56 23.1401 56.4343 23.1401 59.98C23.1401 63.5257 26.0145 66.4 29.5601 66.4Z" stroke="#51BE8C" stroke-width="3" stroke-miterlimit="10" stroke-linecap="round" stroke-linejoin="round"/>
<path d="M61.6798 59.98C61.6798 56.43 58.7998 53.56 55.2598 53.56C51.7198 53.56 48.8398 56.44 48.8398 59.98C48.8398 63.53 51.7198 66.4 55.2598 66.4C58.7998 66.4 61.6798 63.53 61.6798 59.98Z" stroke="#51BE8C" stroke-width="3" stroke-miterlimit="10" stroke-linecap="round" stroke-linejoin="round"/>
<path d="M14.9697 22.75L63.6298 19.45" stroke="#51BE8C" stroke-width="3" stroke-miterlimit="10" stroke-linecap="round" stroke-linejoin="round"/>
</svg>
