<?xml version="1.0" encoding="utf-8"?>
<!-- Generator: Adobe Illustrator 27.1.1, SVG Export Plug-In . SVG Version: 6.00 Build 0)  -->
<svg version="1.1" id="Layer_1" xmlns="http://www.w3.org/2000/svg" xmlns:xlink="http://www.w3.org/1999/xlink" x="0px" y="0px"
	 viewBox="0 0 83.53 111.5" style="enable-background:new 0 0 83.53 111.5;" xml:space="preserve">
<style type="text/css">
	.st0{fill:#FAA61A;}
</style>
<path class="st0" d="M79.1,43.51c-1.78-2.02-4.34-3.18-7.03-3.18h-3.48l-18.6-25.09c0.93-1.52,1.47-3.3,1.47-5.2
	C51.46,4.5,46.96,0,41.43,0c-5.53,0-10.04,4.5-10.04,10.04c0,1.89,0.54,3.66,1.45,5.18L13.11,40.33H9.36
	c-2.69,0-5.26,1.16-7.03,3.18c-1.78,2.02-2.6,4.71-2.24,7.45l7.5,52.37c0.6,4.65,4.59,8.16,9.29,8.16h47.68
	c4.69,0,8.69-3.51,9.28-8.1l7.52-52.51C81.7,48.23,80.88,45.53,79.1,43.51z M41.43,3c3.88,0,7.04,3.16,7.04,7.04
	s-3.16,7.04-7.04,7.04s-7.04-3.16-7.04-7.04S37.55,3,41.43,3z M34.81,17.56c1.77,1.56,4.08,2.51,6.61,2.51
	c2.52,0,4.81-0.94,6.58-2.47l16.85,22.74H16.93L34.81,17.56z"/>
</svg>
