<?xml version="1.0" encoding="utf-8"?>
<!-- Generator: Adobe Illustrator 27.1.1, SVG Export Plug-In . SVG Version: 6.00 Build 0)  -->
<svg version="1.1" id="Layer_1" xmlns="http://www.w3.org/2000/svg" xmlns:xlink="http://www.w3.org/1999/xlink" x="0px" y="0px"
	 viewBox="0 0 100 100" style="enable-background:new 0 0 100 100;" xml:space="preserve">
<style type="text/css">
	.st0{fill:#F15A24;}
	.st1{fill:#FFFFFF;}
	.st2{font-family:'Comfortaa-Bold';}
	.st3{font-size:32.3355px;}
	.st4{font-size:11.3655px;}
	.st5{fill:none;stroke:#F15A24;stroke-width:3;stroke-linecap:round;stroke-linejoin:round;stroke-miterlimit:10;}
</style>
<g>
	<path class="st0" d="M32.08,92.17c-3.56,0-6.58-2.66-7.04-6.19l-5.69-39.68c-0.27-2.07,0.35-4.11,1.7-5.65
		c1.35-1.53,3.29-2.41,5.33-2.41H73.9c2.04,0,3.98,0.88,5.33,2.41c1.35,1.53,1.97,3.57,1.71,5.59l-5.7,39.79
		c-0.45,3.47-3.47,6.13-7.03,6.13H32.08z"/>
	<path class="st0" d="M26.39,42.04H73.9c1.99,0,3.54,1.75,3.28,3.73L71.49,85.5c-0.21,1.65-1.62,2.88-3.28,2.88H32.08
		c-1.66,0-3.07-1.23-3.28-2.88l-5.69-39.73C22.85,43.79,24.39,42.04,26.39,42.04z"/>
	<text transform="matrix(1 0 0 1 40.4614 73.3662)" class="st1 st2 st3">3</text>
	<text transform="matrix(1 0 0 1 34.3237 85.3809)" class="st1 st2 st4">items</text>
	<circle class="st5" cx="50.69" cy="15.29" r="6.47"/>
	<line class="st5" x1="26.43" y1="43.65" x2="45.59" y2="19.27"/>
	<line class="st5" x1="73.86" y1="43.65" x2="55.78" y2="19.27"/>
</g>
</svg>
