<?xml version="1.0" encoding="utf-8"?>
<!-- Generator: Adobe Illustrator 27.1.1, SVG Export Plug-In . SVG Version: 6.00 Build 0)  -->
<svg version="1.1" id="Layer_1" xmlns="http://www.w3.org/2000/svg" xmlns:xlink="http://www.w3.org/1999/xlink" x="0px" y="0px"
	 viewBox="0 0 120 134" style="enable-background:new 0 0 120 134;" xml:space="preserve">
<style type="text/css">
	.st0{fill:#F15B27;}
	.st1{fill:none;stroke:#F15B27;stroke-width:3;stroke-linecap:round;stroke-linejoin:round;stroke-miterlimit:10;}
</style>
<g>
	<path class="st0" d="M38.16,122.25c-4.69,0-8.69-3.51-9.29-8.16l-7.5-52.37c-0.35-2.74,0.47-5.43,2.24-7.45
		c1.78-2.02,4.34-3.18,7.03-3.18h62.71c2.69,0,5.26,1.16,7.03,3.18c1.78,2.02,2.6,4.71,2.25,7.38l-7.52,52.51
		c-0.59,4.59-4.58,8.1-9.28,8.1H38.16z"/>
	<path class="st0" d="M30.64,56.08h62.71c2.63,0,4.67,2.31,4.33,4.92l-7.51,52.44c-0.28,2.18-2.13,3.81-4.33,3.81H38.16
		c-2.19,0-4.05-1.63-4.33-3.81l-7.51-52.44C25.98,58.39,28.01,56.08,30.64,56.08z"/>
	<circle class="st1" cx="62.71" cy="20.79" r="8.54"/>
	<line class="st1" x1="30.7" y1="58.21" x2="55.98" y2="26.03"/>
	<line class="st1" x1="93.3" y1="58.21" x2="69.44" y2="26.03"/>
</g>
</svg>
