<?xml version="1.0" encoding="utf-8"?>
<!-- Generator: Adobe Illustrator 24.0.2, SVG Export Plug-In . SVG Version: 6.00 Build 0)  -->
<svg version="1.1" id="Ebene_1" xmlns="http://www.w3.org/2000/svg" xmlns:xlink="http://www.w3.org/1999/xlink" x="0px" y="0px"
	 viewBox="0 0 390 75" style="enable-background:new 0 0 390 75;" xml:space="preserve">
<style type="text/css">
	.st0{fill:url(#SVGID_1_);}
	.st1{fill:none;}
	.st2{fill:url(#SVGID_2_);}
</style>
<g>
	<linearGradient id="SVGID_1_" gradientUnits="userSpaceOnUse" x1="196.2591" y1="113.8545" x2="283.348" y2="-36.9879">
		<stop  offset="0" style="stop-color:#8D8C8C"/>
		<stop  offset="0.3785" style="stop-color:#9C9999"/>
		<stop  offset="1" style="stop-color:#B2ADAD"/>
	</linearGradient>
	<path class="st0" d="M199.66,16.12c-6.28,0-11.38,2.03-15.15,6.04c-3.75,3.94-5.7,9.09-5.79,15.34c0.09,6.23,2.04,11.38,5.79,15.32
		c3.77,4.02,8.87,6.05,15.15,6.05c6.24,0,11.34-2.04,15.15-6.05c3.68-3.93,5.62-9.08,5.78-15.36c-0.16-6.22-2.1-11.37-5.78-15.3
		C211,18.16,205.91,16.12,199.66,16.12z M199.66,52.14c-4.38,0-7.72-1.37-10.22-4.18c-2.44-2.72-3.62-6.15-3.62-10.47
		c0-4.25,1.22-7.77,3.63-10.46c2.5-2.81,5.85-4.18,10.22-4.18c4.37,0,7.71,1.36,10.22,4.18c2.4,2.69,3.62,6.21,3.62,10.46
		c0,4.26-1.22,7.78-3.63,10.48C207.38,50.78,204.03,52.14,199.66,52.14z M104.6,23.43V34.1h17.2c0.93,0,1.73,0.33,2.4,0.98
		c0.66,0.66,1,1.49,1,2.41c0,0.95-0.35,1.78-1.01,2.41c-0.66,0.63-1.47,0.94-2.39,0.94h-17.2v10.73h19.24c0.94,0,1.77,0.35,2.42,1
		c0.64,0.64,0.98,1.47,0.98,2.41c0,0.94-0.35,1.77-1.01,2.39c-0.64,0.62-1.47,0.95-2.39,0.95h-22.82c-0.96,0-1.82-0.35-2.49-1.02
		c-0.68-0.68-1.02-1.52-1.02-2.49V20.26c0-0.98,0.34-1.82,1.01-2.51c0.64-0.69,1.51-1.07,2.5-1.07h22.82c0.93,0,1.76,0.34,2.41,0.98
		c0.66,0.67,0.99,1.49,0.99,2.43c0,0.94-0.35,1.76-1,2.39c-0.65,0.62-1.47,0.95-2.4,0.95H104.6z M147.38,27.16
		c-2.36,2.58-3.56,6.05-3.56,10.33c0,4.29,1.2,7.77,3.56,10.34c2.6,2.82,6.11,4.19,10.74,4.19c2.12,0,3.97-0.23,5.47-0.69
		c1.51-0.47,3.03-1.1,4.51-1.87c0.45-0.22,0.99-0.32,1.72-0.32c0.81,0,1.55,0.33,2.12,0.96c0.56,0.61,0.85,1.33,0.85,2.15
		c0,1.77-0.97,2.62-1.79,3.02c-1.79,0.99-3.76,1.86-5.82,2.55c-2.14,0.71-4.69,1.07-7.59,1.07c-2.94,0-5.71-0.49-8.23-1.46
		c-2.54-0.97-4.78-2.41-6.65-4.28c-3.96-3.88-5.97-9.15-5.97-15.65c0-6.48,2.01-11.75,5.98-15.64c3.83-3.8,8.84-5.73,14.89-5.73
		c2.98,0,5.45,0.35,7.56,1.06c2.05,0.69,3.67,1.35,4.81,1.98c1.3,0.71,1.99,1.23,2.32,1.76c0.32,0.52,0.48,1.14,0.48,1.86
		c0,0.8-0.29,1.52-0.85,2.13c-0.56,0.62-1.3,0.95-2.11,0.95c-0.74,0-1.28-0.1-1.71-0.32c-1.48-0.77-3-1.4-4.52-1.87
		c-1.5-0.46-3.41-0.7-5.67-0.7c-2.23,0-4.27,0.38-6.07,1.12C150.06,24.84,148.56,25.87,147.38,27.16z M284.41,23.43V34.1h17.2
		c0.92,0,1.73,0.32,2.4,0.97c0.67,0.66,1,1.47,1,2.42c0,0.96-0.35,1.79-1.01,2.41c-0.67,0.63-1.47,0.94-2.39,0.94h-17.2v10.73h19.25
		c0.93,0,1.77,0.35,2.41,0.99c0.65,0.65,0.99,1.48,0.99,2.41c0,0.93-0.35,1.76-1.01,2.39c-0.65,0.62-1.48,0.95-2.4,0.95h-22.82
		c-0.97,0-1.83-0.35-2.49-1.02c-0.68-0.68-1.02-1.52-1.02-2.5V20.26c0-0.97,0.33-1.82,1.01-2.51c0.65-0.69,1.52-1.07,2.51-1.07
		h22.82c0.92,0,1.75,0.34,2.41,0.98c0.67,0.68,1,1.49,1,2.43c0,0.93-0.35,1.75-1,2.39c-0.66,0.62-1.49,0.95-2.4,0.95H284.41z
		 M384.23,22.17c-3.8-4.01-8.89-6.04-15.14-6.04c-6.29,0-11.39,2.03-15.14,6.04c-3.76,3.94-5.7,9.09-5.78,15.34
		c0.08,6.22,2.03,11.38,5.78,15.32c3.76,4.01,8.86,6.05,15.15,6.05c6.25,0,11.34-2.04,15.15-6.05c3.68-3.91,5.62-9.07,5.78-15.36
		C389.85,31.23,387.91,26.08,384.23,22.17z M369.09,52.14c-4.37,0-7.72-1.37-10.22-4.18c-2.4-2.69-3.62-6.21-3.62-10.47
		c0-4.25,1.22-7.77,3.62-10.46c2.51-2.81,5.85-4.18,10.22-4.18c4.31,0,7.75,1.4,10.22,4.18c2.41,2.69,3.62,6.21,3.62,10.46
		c0,4.32-1.18,7.75-3.63,10.48C376.84,50.74,373.4,52.14,369.09,52.14z M344.67,52.29c0.67,0.66,1.04,1.53,1.04,2.51
		c0,0.99-0.36,1.83-1.06,2.51c-0.68,0.66-1.55,1.01-2.51,1.01h-20.2c-1.24,0-2.32-0.45-3.21-1.33c-0.89-0.88-1.33-1.96-1.33-3.21
		v-33.8c0-0.96,0.35-1.82,1.01-2.51c0.66-0.7,1.51-1.06,2.51-1.06c0.98,0,1.85,0.37,2.53,1.07c0.67,0.65,1.04,1.52,1.04,2.5v31.26
		h17.66C343.13,51.22,343.98,51.58,344.67,52.29z M265.52,17.46c0.67,0.65,1.04,1.53,1.04,2.5v33.98c0,1.26-0.46,2.37-1.38,3.29
		c-0.95,0.91-2.06,1.37-3.33,1.37h-0.68c-1.54,0-2.82-0.65-3.78-1.92l-20.31-29.34v27.74c0,0.97-0.36,1.84-1.05,2.5
		c-0.71,0.67-1.56,1.01-2.52,1.01c-0.96,0-1.83-0.35-2.5-1.02c-0.66-0.66-1-1.52-1-2.49V21.1c0-1.27,0.45-2.37,1.33-3.3
		c0.91-0.93,2.05-1.41,3.3-1.41h0.74c1.48,0,2.78,0.7,3.87,2.08l20.21,29.18V19.97c0-0.96,0.35-1.83,1.01-2.51
		c0.65-0.7,1.5-1.06,2.5-1.06C263.98,16.4,264.83,16.76,265.52,17.46z"/>
	<g>
		<path class="st1" d="M54.17,0H20.83C9.34,0,0,9.35,0,20.83v33.34C0,65.66,9.34,75,20.83,75h33.34C65.65,75,75,65.66,75,54.17
			V20.83C75,9.35,65.65,0,54.17,0z"/>
		<linearGradient id="SVGID_2_" gradientUnits="userSpaceOnUse" x1="0" y1="37.5" x2="74.998" y2="37.5">
			<stop  offset="0" style="stop-color:#94C23E"/>
			<stop  offset="0.2526" style="stop-color:#9CC544"/>
			<stop  offset="1" style="stop-color:#AECC53"/>
		</linearGradient>
		<path class="st2" d="M54.17,0H20.83C9.34,0,0,9.35,0,20.83v33.34C0,65.66,9.34,75,20.83,75h33.34C65.65,75,75,65.66,75,54.17
			V20.83C75,9.35,65.65,0,54.17,0z M66.67,54.17c0,6.9-5.61,12.5-12.5,12.5H20.83c-6.9,0-12.5-5.6-12.5-12.5V20.83
			c0-6.89,5.6-12.5,12.5-12.5h33.34c6.89,0,12.5,5.61,12.5,12.5V54.17z M58.26,20.89c0,2.3-1.86,4.15-4.15,4.15H25.04v24.91h29.06
			c2.29,0,4.15,1.87,4.15,4.15c0,2.29-1.86,4.16-4.15,4.16H20.88c-2.29,0-4.15-1.87-4.15-4.16V20.89c0-2.29,1.86-4.15,4.15-4.15
			h33.23C56.4,16.75,58.26,18.6,58.26,20.89z M54.11,33.34c2.29,0,4.15,1.87,4.15,4.16c0,2.3-1.86,4.16-4.15,4.16H35.76
			c-2.3,0-4.16-1.86-4.16-4.16c0-2.29,1.86-4.16,4.16-4.16H54.11z"/>
	</g>
</g>
</svg>
