<svg xmlns="http://www.w3.org/2000/svg" width="48" height="32" fill="none">
  <path fill="#fff" d="M.5.5h47v31H.5z"/>
  <path fill="#FF5F00" d="M29.36 7.12H18.72v17.77h10.64V7.12Z"/>
  <path fill="#EB001B" d="M19.79 16c0-3.5 1.57-6.77 4.21-8.88a10.97 10.97 0 0 0-15.57 1.9 11.49 11.49 0 0 0 1.86 15.87c4 3.2 9.64 3.2 13.71 0A11.6 11.6 0 0 1 19.8 16Z"/>
  <path fill="#F79E1B" d="M40.93 23v-.37h.15v-.07h-.36v.07h.14l.07.37Zm.72 0v-.44h-.14l-.15.3-.14-.3h-.14V23h.07v-.37l.14.3h.07l.15-.3V23h.14ZM41.93 16c0 6.27-4.92 11.3-11.07 11.3-2.5 0-4.93-.88-6.86-2.41a11.48 11.48 0 0 0 0-17.77 10.97 10.97 0 0 1 15.58 1.9A11.15 11.15 0 0 1 41.93 16Z"/>
  <path stroke="#E9E9E9" d="M.5.5h47v31H.5z"/>
</svg>
