<svg xmlns="http://www.w3.org/2000/svg" width="48" height="32" fill="none">
  <path fill="#FFB3C7" d="M.5.5h47v31H.5z"/>
  <path fill="#000" fill-rule="evenodd" d="M5.54 11.58h1.91v8.67H5.54v-8.67Zm6.78 0h-1.9a5.06 5.06 0 0 1-1.98 4.02l-.76.58 2.93 4.07h2.41l-2.7-3.75a6.9 6.9 0 0 0 2-4.92Zm1.27 0h1.85v8.67h-1.85V11.6ZM38 14.1c.56.03 1.1.22 1.57.54v-.38h1.76v5.99h-1.76v-.38a3.06 3.06 0 0 1-4.4-.98 3.21 3.21 0 0 1 1.2-4.43c.5-.27 1.07-.4 1.63-.36Zm-.85 4.4c.24.18.53.28.82.3.41 0 .81-.15 1.11-.44.3-.29.48-.69.49-1.1a1.57 1.57 0 0 0-.92-1.43 1.49 1.49 0 0 0-1.64.3 1.55 1.55 0 0 0-.38 1.66c.1.28.29.53.52.7Zm-5.55-4.4a2.1 2.1 0 0 0-1.81.83v-.67h-1.76v6h1.78V17.1a1.29 1.29 0 0 1 .35-.99 1.24 1.24 0 0 1 .97-.37c.77 0 1.22.47 1.22 1.35v3.16h1.75v-3.81c0-1.4-1.08-2.34-2.5-2.34Zm-12.17 0c.56.03 1.1.22 1.57.54v-.38h1.76v5.99H21v-.38a3.06 3.06 0 0 1-4.4-.98 3.21 3.21 0 0 1 1.2-4.43c.5-.27 1.07-.4 1.63-.36Zm-.85 4.4c.24.18.53.28.82.3.41 0 .81-.15 1.11-.44.3-.29.48-.69.49-1.1a1.57 1.57 0 0 0-.92-1.43 1.49 1.49 0 0 0-1.64.3 1.55 1.55 0 0 0-.38 1.66c.1.28.29.53.52.7Zm6.9-3.46v-.78h-1.8v6h1.81v-2.8c0-.95 1-1.46 1.7-1.46h.02v-1.74a2.16 2.16 0 0 0-1.72.78Zm17.1 3.27a1.09 1.09 0 0 1 1.64.51 1.14 1.14 0 0 1-.6 1.47 1.08 1.08 0 0 1-1.2-.24 1.13 1.13 0 0 1-.24-1.23c.09-.2.23-.38.4-.5Z" clip-rule="evenodd"/>
  <path stroke="#E9E9E9" d="M.5.5h47v31H.5z"/>
</svg>
