<svg xmlns="http://www.w3.org/2000/svg" width="48" height="32" fill="none"><path fill="#fff" d="M.5.5h47v31H.5z"/><path stroke="#E9E9E9" d="M.5.5h47v31H.5z"/><path fill="#5F6368" d="M22.9 15.8v4.7h-1.5V9h3.9c1 0 1.8.3 2.6 1 .7.6 1 1.5 1 2.4 0 1-.3 1.8-1 2.5-.8.7-1.6 1-2.6 1h-2.4Zm0-5.4v4h2.5a2 2 0 0 0 1.5-.6c.8-.8.8-2 0-2.8-.4-.4-1-.7-1.5-.6h-2.5ZM32.4 12.4c1 0 1.9.3 2.6.9a3 3 0 0 1 .9 2.4v4.8h-1.4v-1.1c-.6.9-1.5 1.4-2.5 1.4-.9 0-1.6-.3-2.2-.8-.6-.5-.9-1.2-.9-2s.3-1.4.9-1.9c.6-.5 1.4-.7 2.4-.7a4 4 0 0 1 2.2.5v-.3c0-.5-.2-1-.6-1.3-.4-.4-.9-.6-1.4-.6-.9 0-1.5.4-2 1l-1.3-.8c.8-1 1.8-1.5 3.3-1.5Zm-2 5.7c0 .4.3.8.6 1 .3.2.7.3 1.1.3.6 0 1.2-.2 1.6-.6.5-.5.8-1 .8-1.7-.5-.3-1.1-.5-2-.5-.6 0-1 .1-1.4.4-.5.3-.7.6-.7 1.1ZM44 12.7 39 24h-1.5l1.9-4-3.3-7.3h1.6l2.4 5.7 2.4-5.7H44Z"/><path fill="#4285F4" d="m17 14.8-.1-1.3h-6.3v2.6h3.6a3 3 0 0 1-1.3 2v1.6H15c1.3-1.1 2-2.8 2-4.8Z"/><path fill="#34A853" d="M10.6 21.3c1.8 0 3.3-.6 4.4-1.6l-2.2-1.6a4 4 0 0 1-2.2.6 4 4 0 0 1-3.7-2.8H4.7v1.7a6.6 6.6 0 0 0 5.9 3.7Z"/><path fill="#FBBC04" d="M6.9 16c-.3-.8-.3-1.8 0-2.6v-1.7H4.7c-1 1.9-1 4 0 6l2.2-1.8Z"/><path fill="#EA4335" d="M10.6 10.7c1 0 1.8.4 2.6 1L15 9.8a6.6 6.6 0 0 0-10.3 2L7 13.3c.4-1.6 1.9-2.7 3.6-2.7Z"/></svg>