<svg xmlns="http://www.w3.org/2000/svg" width="48" height="32" fill="none">
  <path fill="#fff" d="M.5.5h47v31H.5z"/>
  <path fill="#1434CB" d="M28.25 10.35c-2.43 0-4.6 1.29-4.6 3.66 0 2.71 3.85 2.9 3.85 4.27 0 .57-.64 1.09-1.75 1.09-1.57 0-2.74-.72-2.74-.72l-.5 2.39s1.35.6 3.14.6c2.66 0 4.74-1.34 4.74-3.75 0-2.87-3.86-3.05-3.86-4.32 0-.45.53-.95 1.63-.95 1.24 0 2.26.53 2.26.53l.49-2.31s-1.1-.49-2.66-.49Zm-22.2.18-.07.35s1.02.19 1.94.57c1.19.43 1.27.69 1.47 1.47l2.18 8.55h2.9l4.5-10.94h-2.9l-2.9 7.44-1.17-6.3a1.28 1.28 0 0 0-1.32-1.14H6.04Zm14.09 0-2.28 10.94h2.77l2.27-10.94h-2.76Zm15.46 0c-.67 0-1.03.36-1.29 1l-4.06 9.94h2.91l.56-1.66h3.54l.35 1.66h2.56l-2.24-10.94H35.6Zm.37 2.95.87 4.1h-2.31l1.44-4.1Z"/>
  <path stroke="#E9E9E9" d="M.5.5h47v31H.5z"/>
</svg>
