<svg xmlns="http://www.w3.org/2000/svg" width="48" height="32" fill="none"><path fill="#fff" d="M.5.5h47v31H.5z"/><path stroke="#E9E9E9" d="M.5.5h47v31H.5z"/><path fill="#000" d="M12.7 10.3c.4-.6.7-1.3.6-2a2.8 2.8 0 0 0-2.5 2.8c.7.1 1.4-.3 1.9-.8ZM13.3 11.3c-1 0-1.9.6-2.4.6-.4 0-1.2-.6-2-.6-1 0-2 .6-2.6 1.6-1 1.9-.2 4.7.8 6.2.5.8 1.2 1.6 2 1.6s1-.5 2-.5 1.2.5 2 .5c1 0 1.4-.8 2-1.5.6-1 .8-1.8.8-1.8s-1.6-.6-1.6-2.5c0-1.6 1.2-2.3 1.3-2.4a3 3 0 0 0-2.3-1.2ZM22.2 9.2c2.2 0 3.8 1.5 3.8 3.7 0 2.3-1.6 3.8-3.8 3.8h-2.5v3.9H18V9.2h4.3Zm-2.5 6h2c1.6 0 2.5-.8 2.5-2.3 0-1.4-1-2.2-2.4-2.2h-2v4.5ZM26.5 18.2c0-1.4 1-2.3 3-2.4l2.3-.2V15c0-1-.6-1.5-1.6-1.5s-1.6.5-1.8 1.2h-1.6c0-1.5 1.4-2.6 3.4-2.6s3.3 1 3.3 2.8v5.7H32v-1.4a3 3 0 0 1-2.7 1.5c-1.6 0-2.7-1-2.7-2.5Zm5.3-.7v-.7l-2 .1c-1 .1-1.6.6-1.6 1.3 0 .7.6 1.2 1.5 1.2 1.2 0 2.1-.8 2.1-2ZM35 23.7v-1.4h.6c.8 0 1.3-.3 1.5-1.2l.2-.5-3-8.3H36l2.1 6.7 2.2-6.7h1.8L39 21c-.8 2-1.6 2.7-3.3 2.7H35Z"/></svg>