<svg xmlns="http://www.w3.org/2000/svg" width="48" height="32" fill="none">
  <path fill="#fff" d="M.5.5h47v31H.5z"/>
  <path fill="#253B80" d="m6.93 20.78.17-1.08-.37-.01H4.95L6.2 11.7a.1.1 0 0 1 .03-.06.1.1 0 0 1 .07-.02h3c.98 0 1.67.2 2.03.62.17.2.27.4.32.63.06.23.06.51 0 .86v.24l.17.1c.14.08.25.16.34.26.14.17.24.38.28.63a3.26 3.26 0 0 1-.4 1.95 2.12 2.12 0 0 1-1.38 1.02c-.29.07-.62.11-.98.11h-.23a.7.7 0 0 0-.7.6l-.01.1-.3 1.9v.08l-.03.04H6.93Z"/>
  <path fill="#179BD7" d="m11.97 13.79-.03.18c-.4 2.06-1.75 2.78-3.47 2.78h-.88a.43.43 0 0 0-.42.37l-.45 2.9-.13.83c-.02.14.09.26.22.26h1.56c.19 0 .34-.13.37-.32l.02-.08.3-1.9v-.1a.38.38 0 0 1 .38-.33h.23c1.51 0 2.7-.62 3.04-2.43.14-.75.07-1.38-.31-1.83a1.5 1.5 0 0 0-.43-.33Z"/>
  <path fill="#222D65" d="M11.56 13.62a3.1 3.1 0 0 0-.39-.09c-.23-.04-.5-.05-.77-.05H8.05a.38.38 0 0 0-.37.32l-.5 3.22-.01.1a.43.43 0 0 1 .42-.37h.88c1.72 0 3.07-.72 3.47-2.78l.03-.18a2.09 2.09 0 0 0-.41-.17Z"/>
  <path fill="#253B80" d="M7.68 13.8a.38.38 0 0 1 .37-.32h2.35a4.78 4.78 0 0 1 1.25.17c.11.04.22.08.32.14.12-.77 0-1.28-.4-1.76-.45-.51-1.26-.74-2.29-.74h-3a.43.43 0 0 0-.41.37l-1.25 8.06c-.03.16.1.3.25.3h1.85l.46-3 .5-3.22ZM19.48 13.7h-2.11a.3.3 0 0 0-.3.25l-.85 5.53c-.02.1.07.2.17.2h1.01a.3.3 0 0 0 .3-.25l.22-1.49a.3.3 0 0 1 .3-.25h.66c1.4 0 2.2-.69 2.4-2.05.1-.6.01-1.06-.26-1.4-.3-.35-.83-.54-1.54-.54Zm.24 2.02c-.11.77-.7.77-1.25.77h-.32l.22-1.44a.18.18 0 0 1 .18-.16h.14c.38 0 .74 0 .93.23.11.13.14.33.1.6ZM25.8 15.7h-1.02a.18.18 0 0 0-.17.14l-.05.3-.07-.11c-.22-.33-.7-.44-1.2-.44-1.11 0-2.07.87-2.25 2.08-.1.6.04 1.18.38 1.58.3.37.75.53 1.27.53.9 0 1.4-.6 1.4-.6l-.04.3c-.02.1.06.2.17.2h.91a.3.3 0 0 0 .3-.25l.54-3.53a.18.18 0 0 0-.18-.2Zm-1.42 2c-.1.59-.55.98-1.14.98-.3 0-.53-.1-.68-.27a.89.89 0 0 1-.16-.73c.1-.58.56-1 1.14-1 .29 0 .52.1.67.29a.9.9 0 0 1 .17.73ZM31.18 15.7h-1.01a.3.3 0 0 0-.25.12l-1.4 2.1-.6-2.01a.3.3 0 0 0-.28-.22h-1c-.12 0-.2.12-.16.24l1.12 3.35-1.05 1.52c-.09.12 0 .28.14.28h1.01a.3.3 0 0 0 .25-.13l3.38-4.98c.08-.12 0-.28-.15-.28Z"/>
  <path fill="#179BD7" d="M34.55 13.7h-2.11a.3.3 0 0 0-.3.25l-.85 5.53c-.01.1.07.2.18.2h1.08a.2.2 0 0 0 .2-.17l.25-1.57a.3.3 0 0 1 .29-.25h.66c1.4 0 2.2-.69 2.4-2.05.1-.6.01-1.06-.26-1.4-.3-.35-.83-.54-1.54-.54Zm.24 2.02c-.11.77-.7.77-1.25.77h-.32l.22-1.44a.18.18 0 0 1 .18-.16h.14c.39 0 .75 0 .93.23.11.13.15.33.1.6ZM40.87 15.7h-1.02a.18.18 0 0 0-.17.14l-.04.3-.07-.11c-.22-.33-.71-.44-1.2-.44-1.12 0-2.07.87-2.26 2.08-.1.6.04 1.18.38 1.58.3.37.75.53 1.27.53.9 0 1.4-.6 1.4-.6l-.04.3c-.02.1.06.2.17.2h.91a.3.3 0 0 0 .3-.25l.54-3.53a.18.18 0 0 0-.17-.2Zm-1.41 2c-.1.59-.56.98-1.15.98-.29 0-.52-.1-.68-.27a.9.9 0 0 1-.15-.73c.09-.58.55-1 1.13-1 .29 0 .52.1.67.29a.9.9 0 0 1 .18.73ZM42.06 13.85l-.87 5.63c-.02.1.07.2.18.2h.87a.3.3 0 0 0 .29-.25l.85-5.52a.18.18 0 0 0-.17-.21h-.98a.18.18 0 0 0-.17.15Z"/>
  <path stroke="#E9E9E9" d="M.5.5h47v31H.5z"/>
</svg>
