<svg width="30" height="31" viewBox="0 0 30 31" fill="none" xmlns="http://www.w3.org/2000/svg">
<path fill-rule="evenodd" clip-rule="evenodd" d="M1.76025 8.57001C2.37025 7.22001 3.24024 6.04999 4.25024 4.98999C6.54024 2.58999 9.32023 1.05002 12.6102 0.520017C17.2102 -0.219983 21.3303 0.87 24.8903 3.94C25.1103 4.13 25.1702 4.24999 24.9302 4.48999C23.6702 5.71999 22.4402 6.97002 21.1902 8.21002C21.0602 8.34002 20.9802 8.48998 20.7502 8.28998C17.6202 5.41998 12.5002 5.44999 9.17023 8.54999C8.03023 9.60999 7.21024 10.89 6.68024 12.35C6.60024 12.3 6.52026 12.25 6.45026 12.2C4.89026 10.98 3.33025 9.78001 1.76025 8.57001Z" fill="#D7282A"/>
<path fill-rule="evenodd" clip-rule="evenodd" d="M6.65002 18.2C7.10002 19.34 7.65999 20.42 8.48999 21.34C10.6 23.67 13.21 24.67 16.35 24.35C17.81 24.2 19.13 23.71 20.37 22.95C20.49 23.06 20.6 23.17 20.73 23.27C22.18 24.4 23.63 25.53 25.08 26.66C23.48 28.18 21.59 29.19 19.46 29.73C14.45 31 9.82997 30.2 5.71997 26.96C4.01997 25.62 2.69 23.97 1.75 22.01C3.38 20.74 5.02002 19.47 6.65002 18.2Z" fill="#45AC43"/>
<path fill-rule="evenodd" clip-rule="evenodd" d="M25.0804 26.65C23.6304 25.52 22.1803 24.39 20.7303 23.26C20.6003 23.16 20.4904 23.05 20.3704 22.94C21.3504 22.19 22.1704 21.3 22.7104 20.18C22.9204 19.73 23.0803 19.26 23.2203 18.78C23.3203 18.45 23.2904 18.32 22.8804 18.33C20.4604 18.35 18.0504 18.34 15.6304 18.34C15.1204 18.34 15.1204 18.34 15.1204 17.81C15.1204 16.17 15.1304 14.53 15.1104 12.9C15.1104 12.58 15.1604 12.46 15.5204 12.46C19.9804 12.47 24.4304 12.47 28.8904 12.46C29.1304 12.46 29.2804 12.48 29.3204 12.77C29.8704 16.67 29.4304 20.39 27.3904 23.83C26.7704 24.89 26.0204 25.85 25.0804 26.65Z" fill="#4286F5"/>
<path fill-rule="evenodd" clip-rule="evenodd" d="M6.65017 18.2C5.02016 19.47 3.38014 20.74 1.75014 22C0.950141 20.52 0.49017 18.93 0.28017 17.27C-0.0898299 14.4 0.320119 11.63 1.54012 8.98999C1.61012 8.84999 1.69016 8.71001 1.77016 8.57001C3.33016 9.77001 4.90016 10.98 6.46016 12.18C6.53016 12.24 6.61014 12.28 6.69014 12.33C6.03014 14.29 6.06016 16.24 6.65017 18.2Z" fill="#F4C300"/>
</svg>
