<svg width="32" height="31" viewBox="0 0 32 31" fill="none" xmlns="http://www.w3.org/2000/svg">
<path d="M7.86008 0.570007H24.6901C28.5701 0.570007 31.7201 3.71998 31.7201 7.59998V23.54C31.7201 27.42 28.5701 30.57 24.6901 30.57H7.86008C3.98008 30.57 0.830078 27.42 0.830078 23.54V7.59998C0.840078 3.71998 3.98008 0.570007 7.86008 0.570007Z" fill="#FFB3C7"/>
<path d="M13.1303 6.69H9.05029V24.63H13.1303V6.69Z" fill="#0A0B09"/>
<path d="M23.3201 6.69C23.3201 10.57 21.8201 14.19 19.1501 16.87L24.7901 24.63H19.7501L13.6201 16.2L15.2001 15C17.8101 13.04 19.3401 9.94999 19.3201 6.67999H23.3201V6.69Z" fill="#0A0B09"/>
</svg>
