<svg width="100" height="117" viewBox="0 0 100 117" fill="none" xmlns="http://www.w3.org/2000/svg">
<path d="M65.46 42.41C65.46 36.42 60.61 31.57 54.62 31.57H22.66C16.67 31.57 11.82 36.42 11.82 42.41V105.29C11.82 111.28 16.67 116.13 22.66 116.13C28.65 116.13 33.5 111.28 33.5 105.29V53.25H54.62C60.61 53.25 65.46 48.4 65.46 42.41Z" fill="#F15A24"/>
<path d="M60.6 0.119995H11.81C5.82 0.119995 0.970001 4.96999 0.970001 10.96C0.970001 16.95 5.82 21.8 11.81 21.8H60.6C70.17 21.8 77.95 29.58 77.95 39.15C77.95 48.72 70.17 56.5 60.6 56.5H54.61C48.62 56.5 43.77 61.35 43.77 67.34C43.77 73.33 48.62 78.18 54.61 78.18H60.6C82.12 78.18 99.63 60.67 99.63 39.15C99.63 17.63 82.13 0.119995 60.6 0.119995Z" fill="#0028A0"/>
</svg>
