<?xml version="1.0" encoding="UTF-8"?>
<svg id="Layer_1" xmlns="http://www.w3.org/2000/svg" version="1.1" viewBox="0 0 103 92.37">
  <!-- Generator: Adobe Illustrator 29.3.0, SVG Export Plug-In . SVG Version: 2.1.0 Build 146)  -->
  <defs>
    <style>
      .st0 {
        fill: #f7941d;
      }

      .st1 {
        fill: #00b159;
      }
    </style>
  </defs>
  <path class="st0" d="M0,50.62c15.45,2.91,30.7-.94,40.73-11.84,9.28-10.09,11.2-23.69,9.22-38.19C36.94,13.74,16.29,34.56,0,50.62Z"/>
  <path class="st0" d="M16.45,55.44h0c18.64,0,33.77,15.13,33.77,33.77v2.58c0,.32-.26.58-.58.58H16.45c-.32,0-.58-.26-.58-.58v-35.76c0-.32.26-.58.58-.58Z"/>
  <path class="st1" d="M103,50.62c-15.45,2.91-30.7-.94-40.73-11.84-9.28-10.09-11.2-23.69-9.22-38.19,13,13.16,33.65,33.98,49.94,50.03Z"/>
  <path class="st1" d="M53.37,55.44h33.19c.32,0,.58.26.58.58v2.58c0,18.64-15.13,33.77-33.77,33.77h0c-.32,0-.58-.26-.58-.58v-35.76c0-.32.26-.58.58-.58Z" transform="translate(139.92 147.81) rotate(180)"/>
</svg>