<svg width="26" height="31" viewBox="0 0 26 31" fill="none" xmlns="http://www.w3.org/2000/svg">
<path fill-rule="evenodd" clip-rule="evenodd" d="M11.5 7.96997H19.96C24.5 7.96997 26.21 10.27 25.95 13.65C25.51 19.23 22.14 22.31 17.67 22.31H15.41C14.8 22.31 14.38 22.72 14.22 23.82L13.26 30.22C13.2 30.64 12.98 30.88 12.65 30.91H7.33004C6.83004 30.91 6.65005 30.53 6.78005 29.7L10.02 9.17999C10.16 8.35999 10.61 7.96997 11.5 7.96997Z" fill="#009EE3"/>
<path fill-rule="evenodd" clip-rule="evenodd" d="M6.20985 0.900024H14.6798C17.0698 0.900024 19.8998 0.980024 21.7898 2.65002C23.0498 3.77002 23.7198 5.54002 23.5698 7.46002C23.0498 13.93 19.1798 17.55 13.9898 17.55H9.80982C9.09982 17.55 8.62982 18.02 8.42982 19.3L7.25984 26.73C7.17984 27.21 6.9798 27.49 6.5998 27.53H1.36982C0.789822 27.53 0.589817 27.09 0.739817 26.13L4.49983 2.33002C4.64983 1.36002 5.17985 0.900024 6.20985 0.900024Z" fill="#113984"/>
<path fill-rule="evenodd" clip-rule="evenodd" d="M8.5498 18.54L10.0298 9.17999C10.1598 8.35999 10.6098 7.96997 11.4998 7.96997H19.9598C21.3598 7.96997 22.4898 8.19003 23.3798 8.59003C22.5298 14.35 18.8098 17.55 13.9298 17.55H9.75983C9.20983 17.54 8.7998 17.82 8.5498 18.54Z" fill="#172C70"/>
</svg>
