<?xml version="1.0" encoding="utf-8"?>
<!-- Generator: Adobe Illustrator 27.1.1, SVG Export Plug-In . SVG Version: 6.00 Build 0)  -->
<svg version="1.1" id="Layer_1" xmlns="http://www.w3.org/2000/svg" xmlns:xlink="http://www.w3.org/1999/xlink" x="0px" y="0px"
	 viewBox="0 0 45.83 45" style="enable-background:new 0 0 45.83 45;" xml:space="preserve">
<style type="text/css">
	.st0{fill:#51BE8C;}
</style>
<g>
	<path class="st0" d="M22.92,2l0.04,0.02l20.55,20.39c0.46,0.46,0.32,0.97,0.24,1.18c-0.08,0.2-0.35,0.67-1,0.67h-2.54h-2v2v15.1
		c0,0.91-0.74,1.65-1.65,1.65h-5.45V31.35c0-2.99-2.43-5.43-5.43-5.43h-5.54c-2.99,0-5.43,2.43-5.43,5.43V43H9.27
		c-0.91,0-1.65-0.74-1.65-1.65v-15.1v-2h-2H3.08c-0.65,0-0.91-0.47-1-0.67c-0.08-0.2-0.22-0.72,0.24-1.18L22.88,2.02
		C22.89,2.01,22.9,2,22.92,2 M22.92,0c-0.52,0-1.05,0.2-1.45,0.6L0.92,20.99c-1.95,1.94-0.58,5.26,2.17,5.26h2.54v15.1
		c0,2.02,1.64,3.65,3.65,3.65h7.45V31.35c0-1.89,1.53-3.43,3.43-3.43h5.54c1.89,0,3.43,1.53,3.43,3.43V45h7.45
		c2.02,0,3.65-1.64,3.65-3.65v-15.1h2.54c2.75,0,4.12-3.33,2.17-5.26L24.36,0.6C23.96,0.2,23.44,0,22.92,0L22.92,0z"/>
</g>
</svg>
