<svg width="69" height="75" viewBox="0 0 69 75" fill="none" xmlns="http://www.w3.org/2000/svg">
<path d="M48.2998 40.91H54.2697C58.2597 40.91 61.6497 42.98 62.2297 45.78L66.4797 66.38C67.1897 69.81 63.4297 72.89 58.5197 72.89H10.1197C5.1397 72.89 1.34966 69.72 2.19966 66.24L7.15974 45.64C7.81974 42.92 11.1597 40.91 15.0897 40.91H19.8098" stroke="#51BE8C" stroke-width="3" stroke-miterlimit="10" stroke-linecap="round" stroke-linejoin="round"/>
<path d="M52.0099 15.77C47.2399 1.11998 34.1399 2.21998 34.1399 2.21998C34.1399 2.21998 21.0199 1.11998 16.2499 15.77C13.3499 23.71 18.3399 35.66 23.7799 45.28C26.9399 50.89 30.2699 55.7 32.2699 58.47C33.1799 59.74 35.0799 59.74 35.9999 58.47C37.9999 55.7 41.3299 50.89 44.4899 45.28C49.9299 35.65 54.9099 23.7 52.0099 15.77ZM34.1299 11.9C38.9499 11.9 42.8699 15.81 42.8699 20.65C42.8699 25.47 38.9599 29.4 34.1299 29.4C29.2999 29.4 25.3799 25.48 25.3799 20.65C25.3899 15.81 29.2999 11.9 34.1299 11.9Z" stroke="#51BE8C" stroke-width="3" stroke-miterlimit="10" stroke-linecap="round" stroke-linejoin="round"/>
<path d="M42.8699 20.65C42.8699 25.47 38.9599 29.4 34.1299 29.4C29.2999 29.4 25.3799 25.48 25.3799 20.65C25.3799 15.82 29.2899 11.9 34.1299 11.9C38.9499 11.9 42.8699 15.81 42.8699 20.65Z" stroke="#51BE8C" stroke-width="3" stroke-miterlimit="10" stroke-linecap="round" stroke-linejoin="round"/>
<path d="M42.8699 20.65C42.8699 25.47 38.9599 29.4 34.1299 29.4C29.2999 29.4 25.3799 25.48 25.3799 20.65C25.3799 15.82 29.2899 11.9 34.1299 11.9C38.9499 11.9 42.8699 15.81 42.8699 20.65Z" stroke="#51BE8C" stroke-width="3" stroke-miterlimit="10" stroke-linecap="round" stroke-linejoin="round"/>
</svg>
