<svg width="80" height="60" viewBox="0 0 80 60" fill="none" xmlns="http://www.w3.org/2000/svg">
<path d="M41.2099 44.9C39.2999 46.67 37.4798 48.29 35.7898 49.74C29.5098 55.14 25.1098 58.22 25.1098 58.22C25.1098 58.22 18.0298 53.27 9.01985 44.9C0.00984669 36.53 -0.310161 23.34 10.9498 18.76C12.7598 18.03 14.3698 17.68 15.7898 17.61C22.4898 17.28 25.1098 23.01 25.1098 23.01C25.1098 23.01 28.9698 14.58 39.2698 18.76C50.5398 23.34 50.2199 36.54 41.2099 44.9Z" stroke="#51BE8C" stroke-width="3" stroke-miterlimit="10" stroke-linecap="round" stroke-linejoin="round"/>
<path d="M15.79 17.62C16.77 11.78 20.5201 6.66 27.4001 3.87C41.6601 -1.91 46.9901 9.75 46.9901 9.75C46.9901 9.75 52.3301 -1.91 66.5801 3.87C82.1701 10.19 81.7201 28.46 69.2501 40.04C56.8001 51.62 47.0001 58.47 47.0001 58.47C47.0001 58.47 42.53 55.34 35.79 49.75" stroke="#51BE8C" stroke-width="3" stroke-miterlimit="10" stroke-linecap="round" stroke-linejoin="round"/>
</svg>
